<svg width="492" height="492" viewBox="0 0 492 492" fill="none" xmlns="http://www.w3.org/2000/svg">
<path fill-rule="evenodd" clip-rule="evenodd" d="M246 492C381.862 492 492 381.862 492 246C492 110.138 381.862 0 246 0C110.138 0 0 110.138 0 246C0 381.862 110.138 492 246 492ZM192.515 177.638C191.989 177.111 144.904 106.293 145 106.126C145.048 106.03 190.386 105.982 245.748 106.006L346.401 106.078V203.572C346.401 293.865 346.377 301.33 345.994 304.655C345.181 311.737 343.649 318.484 341.353 325.183C332.811 349.874 313.193 370.473 288.981 380.187C280.129 383.752 271.468 385.785 261.754 386.575C256.993 386.981 171.055 386.934 170.72 386.527C170.432 386.168 170.552 315.565 170.839 315.278C170.959 315.159 190.84 315.039 215.053 314.991C256.885 314.93 259.911 315.041 262.367 313.911C262.809 313.708 263.232 313.465 263.86 313.173C268.477 310.996 272.449 306.522 274.004 301.737C274.062 301.556 274.116 301.386 274.168 301.215C275.056 298.272 275.049 295.059 274.913 236.613C274.817 204.29 274.745 177.829 274.745 177.781C274.745 177.733 256.275 177.733 233.714 177.757C211.153 177.781 192.611 177.733 192.515 177.638Z" fill="url(#paint0_linear_13_21)"/>
<defs>
<linearGradient id="paint0_linear_13_21" x1="442" y1="90" x2="49" y2="407" gradientUnits="userSpaceOnUse">
<stop stop-color="#FF00BF"/>
<stop offset="1" stop-color="#9100FF"/>
</linearGradient>
</defs>
</svg>
